# Blender 5.0.1
# www.blender.org
mtllib bench.mtl
o Cube
v 0.904000 0.474846 -0.070737
v 0.904000 0.474846 0.026025
v -0.904000 0.474846 0.026025
v -0.904000 0.474846 -0.070737
v 0.904000 0.501951 -0.070737
v 0.904000 0.501951 0.026025
v -0.904001 0.501951 0.026025
v -0.904000 0.501951 -0.070737
v 0.904000 0.474846 -0.216759
v 0.904000 0.474846 -0.119997
v -0.904000 0.474846 -0.119997
v -0.904000 0.474846 -0.216759
v 0.904000 0.501951 -0.216759
v 0.904000 0.501951 -0.119997
v -0.904001 0.501951 -0.119997
v -0.904000 0.501951 -0.216759
v 0.904000 0.474846 -0.353306
v 0.904000 0.474846 -0.256544
v -0.904000 0.474846 -0.256544
v -0.904000 0.474846 -0.353306
v 0.904000 0.501951 -0.353306
v 0.904000 0.501951 -0.256544
v -0.904001 0.501951 -0.256544
v -0.904000 0.501951 -0.353306
v 0.904000 0.750954 -0.447309
v 0.904000 0.654564 -0.438834
v -0.904000 0.654564 -0.438834
v -0.904000 0.750954 -0.447309
v 0.904000 0.753328 -0.420309
v 0.904000 0.656938 -0.411833
v -0.904001 0.656938 -0.411833
v -0.904000 0.753328 -0.420309
v 0.904000 0.894741 -0.459528
v 0.904000 0.798350 -0.451053
v -0.904000 0.798350 -0.451053
v -0.904000 0.894741 -0.459528
v 0.904000 0.897115 -0.432528
v 0.904000 0.800724 -0.424052
v -0.904001 0.800724 -0.424052
v -0.904000 0.897115 -0.432528
v 0.601992 0.002601 -0.448915
v 0.601992 0.002601 -0.379199
v 0.629781 0.002600 -0.448915
v 0.629781 0.002601 -0.379199
v 0.601992 0.869519 -0.527310
v 0.601992 0.869519 -0.457594
v 0.629781 0.869519 -0.527310
v 0.629781 0.869520 -0.457594
v 0.601992 0.869519 -0.588184
v 0.601992 0.869519 -0.518468
v 0.629781 0.869519 -0.588184
v 0.629781 0.869520 -0.518468
v 0.601992 0.001347 -0.588183
v 0.601992 0.001347 -0.518467
v 0.629781 0.001347 -0.588183
v 0.629781 0.001348 -0.518467
v 0.574715 0.405103 -0.588070
v 0.574715 0.474819 -0.588070
v 0.602505 0.405103 -0.588070
v 0.602505 0.474819 -0.588070
v 0.574715 0.405105 0.017392
v 0.574715 0.474821 0.017392
v 0.602505 0.405105 0.017393
v 0.602505 0.474821 0.017392
v 0.904000 0.472425 0.017595
v 0.904000 0.375663 0.017595
v -0.904000 0.375663 0.017595
v -0.904000 0.472426 0.017595
v 0.904000 0.472425 0.044700
v 0.904000 0.375663 0.044700
v -0.904001 0.375663 0.044700
v -0.904000 0.472425 0.044700
v -0.629836 0.002601 -0.448915
v -0.629836 0.002601 -0.379199
v -0.602046 0.002600 -0.448915
v -0.602046 0.002601 -0.379199
v -0.629836 0.869519 -0.527310
v -0.629836 0.869519 -0.457594
v -0.602046 0.869519 -0.527310
v -0.602046 0.869520 -0.457594
v -0.629836 0.869519 -0.588184
v -0.629836 0.869519 -0.518468
v -0.602046 0.869519 -0.588184
v -0.602046 0.869520 -0.518468
v -0.629836 0.001347 -0.588183
v -0.629836 0.001347 -0.518467
v -0.602046 0.001347 -0.588183
v -0.602046 0.001348 -0.518467
v -0.657112 0.405103 -0.588070
v -0.657112 0.474819 -0.588070
v -0.629323 0.405103 -0.588070
v -0.629323 0.474819 -0.588070
v -0.657112 0.405105 0.017392
v -0.657112 0.474821 0.017392
v -0.629323 0.405105 0.017393
v -0.629323 0.474821 0.017392
v 0.904000 0.869287 -0.566340
v 0.904000 0.869329 -0.469578
v -0.904000 0.869329 -0.469578
v -0.904000 0.869287 -0.566340
v 0.904000 0.896392 -0.566352
v 0.904000 0.896434 -0.469590
v -0.904001 0.896434 -0.469590
v -0.904000 0.896392 -0.566352
v 0.904000 0.797194 -0.588205
v 0.904000 0.893956 -0.588247
v -0.904000 0.893956 -0.588247
v -0.904000 0.797194 -0.588205
v 0.904000 0.797183 -0.615309
v 0.904000 0.893945 -0.615351
v -0.904001 0.893945 -0.615351
v -0.904000 0.797183 -0.615309
v 0.904000 0.642167 -0.588205
v 0.904000 0.738929 -0.588247
v -0.904000 0.738929 -0.588247
v -0.904000 0.642167 -0.588205
v 0.904000 0.642155 -0.615309
v 0.904000 0.738917 -0.615351
v -0.904001 0.738917 -0.615351
v -0.904000 0.642155 -0.615309
v 0.904000 0.483786 -0.588205
v 0.904000 0.580548 -0.588247
v -0.904000 0.580548 -0.588247
v -0.904000 0.483786 -0.588205
v 0.904000 0.483774 -0.615309
v 0.904000 0.580536 -0.615351
v -0.904001 0.580536 -0.615351
v -0.904000 0.483774 -0.615309
vn -0.0000 -1.0000 -0.0000
vn -0.0000 1.0000 -0.0000
vn 1.0000 -0.0000 -0.0000
vn -0.0000 -0.0000 1.0000
vn -1.0000 -0.0000 -0.0000
vn -0.0000 -0.0000 -1.0000
vn -0.0000 -0.0876 -0.9962
vn -0.0000 0.0876 0.9962
vn -0.0000 -0.9962 0.0876
vn -0.0000 0.9962 -0.0876
vn -0.0000 0.0901 0.9959
vn -0.0000 -0.0901 -0.9959
vn -0.0000 -1.0000 0.0004
vn -0.0000 1.0000 -0.0004
vn -0.0000 0.0004 1.0000
vn -0.0000 -0.0004 -1.0000
vt 0.002157 0.233065
vt 0.002157 0.013800
vt 0.909703 0.013798
vt 0.909702 0.233064
vt 0.002156 0.021994
vt 0.909702 0.021993
vt 0.909703 0.241258
vt 0.002157 0.241259
vt 0.487889 0.432643
vt 0.512111 0.432643
vt 0.512111 0.567357
vt 0.487889 0.567357
vt 0.413934 0.460165
vt 0.413934 0.471111
vt 0.236629 0.471111
vt 0.236629 0.460165
vt 0.236629 0.503949
vt 0.236629 0.493003
vt 0.413934 0.493003
vt 0.413934 0.503949
vt 0.002157 0.239106
vt 0.002157 0.019841
vt 0.909703 0.019840
vt 0.909702 0.239105
vt 0.002156 0.011202
vt 0.909702 0.011201
vt 0.909703 0.230466
vt 0.002157 0.230467
vt 0.236629 0.460165
vt 0.236629 0.449219
vt 0.413934 0.449219
vt 0.413934 0.460165
vt 0.236629 0.514895
vt 0.236629 0.503949
vt 0.413934 0.503949
vt 0.413934 0.514895
vt 0.909703 0.015521
vt 0.909703 0.234787
vt 0.002156 0.234787
vt 0.002157 0.015522
vt 0.002156 0.010341
vt 0.909702 0.010341
vt 0.909703 0.229606
vt 0.002157 0.229606
vt 0.413934 0.471111
vt 0.413934 0.482057
vt 0.236629 0.482057
vt 0.236629 0.471111
vt 0.236629 0.493003
vt 0.236629 0.482057
vt 0.413934 0.482057
vt 0.413934 0.493003
vt 0.909703 0.017171
vt 0.909703 0.235933
vt 0.002157 0.235934
vt 0.002157 0.017172
vt 0.002156 0.017100
vt 0.909702 0.017099
vt 0.909703 0.235861
vt 0.002157 0.235862
vt 0.413934 0.416431
vt 0.413934 0.427352
vt 0.236629 0.427352
vt 0.236629 0.416431
vt 0.413934 0.405510
vt 0.413934 0.416431
vt 0.236629 0.416431
vt 0.236629 0.405510
vt 0.909703 0.017243
vt 0.909703 0.236005
vt 0.002157 0.236006
vt 0.002157 0.017244
vt 0.909703 0.235789
vt 0.002156 0.235789
vt 0.002156 0.017028
vt 0.909702 0.017026
vt 0.413934 0.427352
vt 0.413934 0.438273
vt 0.236629 0.438273
vt 0.236629 0.427352
vt 0.413934 0.394589
vt 0.413934 0.405510
vt 0.236629 0.405510
vt 0.236629 0.394589
vt 0.922090 0.033388
vt 0.993333 0.033388
vt 0.993333 0.960263
vt 0.922090 0.960263
vt 0.909703 0.020271
vt 0.909703 0.239536
vt 0.002157 0.239537
vt 0.002157 0.020272
vt 0.002156 0.010754
vt 0.909702 0.010753
vt 0.909703 0.230018
vt 0.002157 0.230019
vt 0.413934 0.525841
vt 0.413934 0.536787
vt 0.236629 0.536787
vt 0.236629 0.525841
vt 0.413934 0.438273
vt 0.413934 0.449219
vt 0.236629 0.449219
vt 0.236629 0.438273
vt 0.002157 0.241263
vt 0.002157 0.021996
vt 0.909703 0.021995
vt 0.909702 0.241262
vt 0.002156 0.018978
vt 0.909702 0.018978
vt 0.909703 0.238244
vt 0.002157 0.238245
vt 0.413934 0.514895
vt 0.413934 0.525841
vt 0.236629 0.525841
vt 0.236629 0.514895
vt 0.236629 0.558680
vt 0.236629 0.547734
vt 0.413934 0.547734
vt 0.413934 0.558680
vt 0.002157 0.237381
vt 0.002156 0.018114
vt 0.909703 0.018113
vt 0.909702 0.237380
vt 0.909703 0.242127
vt 0.002157 0.242128
vt 0.002156 0.022861
vt 0.909702 0.022860
vt 0.236629 0.580572
vt 0.236629 0.569626
vt 0.413934 0.569626
vt 0.413934 0.580572
vt 0.413934 0.602464
vt 0.413934 0.613411
vt 0.236629 0.613411
vt 0.236629 0.602465
vt 0.002156 0.242560
vt 0.002157 0.023293
vt 0.909703 0.023293
vt 0.909702 0.242559
vt 0.909703 0.240829
vt 0.002157 0.240831
vt 0.002156 0.021564
vt 0.909702 0.021563
vt 0.236629 0.602464
vt 0.236629 0.591518
vt 0.413934 0.591518
vt 0.413934 0.602464
vt 0.236629 0.547733
vt 0.236629 0.536787
vt 0.413934 0.536788
vt 0.413934 0.547734
vt 0.002157 0.237813
vt 0.002156 0.018546
vt 0.909703 0.018546
vt 0.909702 0.237812
vt 0.909703 0.241694
vt 0.002157 0.241696
vt 0.002156 0.022429
vt 0.909702 0.022428
vt 0.236629 0.569626
vt 0.236629 0.558680
vt 0.413934 0.558680
vt 0.413934 0.569626
vt 0.413934 0.580572
vt 0.413934 0.591518
vt 0.236629 0.591518
s 0
usemtl Material.001
f 1/1/1 2/2/1 3/3/1 4/4/1
f 5/5/2 8/6/2 7/7/2 6/8/2
f 1/9/3 5/10/3 6/11/3 2/12/3
f 2/13/4 6/14/4 7/15/4 3/16/4
f 3/9/5 7/10/5 8/11/5 4/12/5
f 5/17/6 1/18/6 4/19/6 8/20/6
f 9/21/1 10/22/1 11/23/1 12/24/1
f 13/25/2 16/26/2 15/27/2 14/28/2
f 9/9/3 13/10/3 14/11/3 10/12/3
f 10/29/4 14/30/4 15/31/4 11/32/4
f 11/9/5 15/10/5 16/11/5 12/12/5
f 13/33/6 9/34/6 12/35/6 16/36/6
f 17/37/1 18/38/1 19/39/1 20/40/1
f 21/41/2 24/42/2 23/43/2 22/44/2
f 17/9/3 21/10/3 22/11/3 18/12/3
f 18/45/4 22/46/4 23/47/4 19/48/4
f 19/9/5 23/10/5 24/11/5 20/12/5
f 21/49/6 17/50/6 20/51/6 24/52/6
f 25/53/7 26/54/7 27/55/7 28/56/7
f 29/57/8 32/58/8 31/59/8 30/60/8
f 25/9/3 29/10/3 30/11/3 26/12/3
f 26/61/9 30/62/9 31/63/9 27/64/9
f 27/9/5 31/10/5 32/11/5 28/12/5
f 29/65/10 25/66/10 28/67/10 32/68/10
f 33/69/7 34/70/7 35/71/7 36/72/7
f 37/73/8 40/74/8 39/75/8 38/76/8
f 33/9/3 37/10/3 38/11/3 34/12/3
f 34/77/9 38/78/9 39/79/9 35/80/9
f 35/9/5 39/10/5 40/11/5 36/12/5
f 37/81/10 33/82/10 36/83/10 40/84/10
f 41/85/1 43/86/1 44/87/1 42/88/1
f 45/85/2 46/86/2 48/87/2 47/88/2
f 44/85/11 48/86/11 46/87/11 42/88/11
f 42/85/5 46/86/5 45/87/5 41/88/5
f 43/85/3 47/86/3 48/87/3 44/88/3
f 41/85/12 45/86/12 47/87/12 43/88/12
f 49/85/2 50/86/2 52/87/2 51/88/2
f 53/85/1 55/86/1 56/87/1 54/88/1
f 51/85/6 55/86/6 53/87/6 49/88/6
f 50/85/4 54/86/4 56/87/4 52/88/4
f 49/85/5 53/86/5 54/87/5 50/88/5
f 52/85/3 56/86/3 55/87/3 51/88/3
f 57/85/6 58/86/6 60/87/6 59/88/6
f 61/85/4 63/86/4 64/87/4 62/88/4
f 59/85/1 63/86/1 61/87/1 57/88/1
f 58/85/2 62/86/2 64/87/2 60/88/2
f 57/85/5 61/86/5 62/87/5 58/88/5
f 60/85/3 64/86/3 63/87/3 59/88/3
f 65/89/6 66/90/6 67/91/6 68/92/6
f 69/93/4 72/94/4 71/95/4 70/96/4
f 65/9/3 69/10/3 70/11/3 66/12/3
f 66/97/1 70/98/1 71/99/1 67/100/1
f 67/9/5 71/10/5 72/11/5 68/12/5
f 69/101/2 65/102/2 68/103/2 72/104/2
f 73/85/1 75/86/1 76/87/1 74/88/1
f 77/85/2 78/86/2 80/87/2 79/88/2
f 76/85/11 80/86/11 78/87/11 74/88/11
f 74/85/5 78/86/5 77/87/5 73/88/5
f 75/85/3 79/86/3 80/87/3 76/88/3
f 73/85/12 77/86/12 79/87/12 75/88/12
f 81/85/2 82/86/2 84/87/2 83/88/2
f 85/85/1 87/86/1 88/87/1 86/88/1
f 83/85/6 87/86/6 85/87/6 81/88/6
f 82/85/4 86/86/4 88/87/4 84/88/4
f 81/85/5 85/86/5 86/87/5 82/88/5
f 84/85/3 88/86/3 87/87/3 83/88/3
f 89/85/6 90/86/6 92/87/6 91/88/6
f 93/85/4 95/86/4 96/87/4 94/88/4
f 91/85/1 95/86/1 93/87/1 89/88/1
f 90/85/2 94/86/2 96/87/2 92/88/2
f 89/85/5 93/86/5 94/87/5 90/88/5
f 92/85/3 96/86/3 95/87/3 91/88/3
f 97/105/13 98/106/13 99/107/13 100/108/13
f 101/109/14 104/110/14 103/111/14 102/112/14
f 97/9/3 101/10/3 102/11/3 98/12/3
f 98/113/15 102/114/15 103/115/15 99/116/15
f 99/9/5 103/10/5 104/11/5 100/12/5
f 101/117/16 97/118/16 100/119/16 104/120/16
f 105/121/15 106/122/15 107/123/15 108/124/15
f 109/125/16 112/126/16 111/127/16 110/128/16
f 105/9/3 109/10/3 110/11/3 106/12/3
f 106/129/14 110/130/14 111/131/14 107/132/14
f 107/9/5 111/10/5 112/11/5 108/12/5
f 109/133/13 105/134/13 108/135/13 112/136/13
f 113/137/15 114/138/15 115/139/15 116/140/15
f 117/141/16 120/142/16 119/143/16 118/144/16
f 113/9/3 117/10/3 118/11/3 114/12/3
f 114/145/14 118/146/14 119/147/14 115/148/14
f 115/9/5 119/10/5 120/11/5 116/12/5
f 117/149/13 113/150/13 116/151/13 120/152/13
f 121/153/15 122/154/15 123/155/15 124/156/15
f 125/157/16 128/158/16 127/159/16 126/160/16
f 121/9/3 125/10/3 126/11/3 122/12/3
f 122/161/14 126/162/14 127/163/14 123/164/14
f 123/9/5 127/10/5 128/11/5 124/12/5
f 125/165/13 121/166/13 124/167/13 128/129/13
